<svg width="435" height="434" viewBox="0 0 435 434" fill="none" xmlns="http://www.w3.org/2000/svg">
<path fill-rule="evenodd" clip-rule="evenodd" d="M3.66576 2.18128C0.821763 4.83028 -0.0402375 8.51928 1.38176 11.9523C2.01076 13.4713 96.6758 108.862 211.75 223.933C416.851 429.03 421.049 433.153 424.785 433.153C426.881 433.153 429.431 432.706 430.451 432.161C432.849 430.877 434.755 425.112 433.713 422.294C433.073 420.563 40.5398 26.7913 18.4778 5.74728C11.8688 -0.556716 7.68476 -1.56372 3.66576 2.18128ZM343.717 77.4033C301.201 119.891 265.526 156.056 264.44 157.771C261.804 161.932 261.951 164.389 265.054 168.076C267.18 170.604 268.385 171.153 271.801 171.153H275.959L345.184 101.912C383.258 63.8303 414.76 32.5553 415.187 32.4123C415.615 32.2703 415.946 85.5913 415.923 150.903C415.899 216.216 416.124 273.35 416.423 277.869C417.079 287.816 418.309 289.486 424.973 289.486C428.379 289.486 430.147 288.916 431.771 287.292L433.965 285.097V145.039V4.98028L431.159 2.56628C429.296 0.96428 427.121 0.153282 424.687 0.153282C421.163 0.153282 418.001 3.17128 343.717 77.4033ZM4.20076 130.403C0.0687628 133.541 0.110761 132.137 0.0087614 271.653C-0.0442386 345.353 0.148762 411.146 0.437762 417.861C1.04576 431.936 1.72076 433.067 9.55976 433.121C12.9878 433.145 14.6388 432.619 16.0598 431.048C17.9078 429.006 17.9798 424.926 18.4648 294.298L18.9648 159.653L83.2218 223.957C120.041 260.804 148.65 288.663 150.222 289.203C154.664 290.726 158.714 289.068 160.788 284.876C161.938 282.553 162.35 280.367 161.905 278.964C161.516 277.739 127.976 243.53 87.3708 202.945C15.1858 130.794 13.4588 129.153 9.69576 129.153C7.57876 129.153 5.10676 129.716 4.20076 130.403Z" fill="url(#paint0_linear_1_8)"/>
<defs>
<linearGradient id="paint0_linear_1_8" x1="374.965" y1="51.6533" x2="57.9648" y2="411.653" gradientUnits="userSpaceOnUse">
<stop stop-color="#7C17B4"/>
<stop offset="1" stop-color="#CACFD1" stop-opacity="0"/>
</linearGradient>
</defs>
</svg>
